P2
7 3
15
5 5 5 6 6 0 0
5 4 4 3 0 0 0
5 5 6 3 3 0 0
