P2
#comentario
3 7
15
1 2 3 4 5 6 7
9 8 7 6 5 4 3 
2 5 8 9 6 3 1